<svg xmlns="http://www.w3.org/2000/svg" id="uuid-cec2bae1-2607-459f-b54c-1992033f299d" data-name="Layer_2" viewBox="0 0 346.35 55.92"><defs><style>      .uuid-6deed047-9090-4aab-a3d0-229f893d34e3 {        fill: #053eff;      }      .uuid-365ce232-3e39-43e6-986a-eae918c671e4 {        fill: #8abb40;      }      .uuid-898cd2d1-a49d-44c1-ab53-26b848876fac {        fill: #ff4f03;      }    </style></defs><g id="uuid-55de09d7-8697-4d0e-b9b6-83b8a2d5059d" data-name="Layer_1"><g><g><path class="uuid-6deed047-9090-4aab-a3d0-229f893d34e3" d="M277.08,41.81h-8.68c-.07-.67-.18-1.28-.19-1.88-.02-3.76,0-7.51,0-11.27,0-.56.02-1.12-.01-1.68-.17-2.41-1.32-3.7-3.42-3.88-2.4-.2-4.35,1.13-4.8,3.38-.16.77-.12,1.59-.12,2.39-.01,4.23,0,8.46,0,12.99-2.95.1-5.78.07-8.78.01-.05-.84-.13-1.53-.13-2.23-.01-3.6,0-7.19,0-10.79,0-.64.02-1.28-.04-1.92-.24-2.62-1.55-3.89-3.94-3.86-2.53.04-4.3,1.62-4.35,4.13-.08,3.92-.02,7.83-.02,11.75,0,.87,0,1.74,0,2.78h-8.76V15.6h7.83c.22.81.42,1.56.62,2.32,4.74-3.7,11.16-4.41,15.87,1.13,1.97-2.06,4.29-3.48,7.19-3.85,6.39-.82,11.24,2.19,11.68,8.88.38,5.8.08,11.64.08,17.73Z"></path><path class="uuid-6deed047-9090-4aab-a3d0-229f893d34e3" d="M69.44,7.18c2.59,0,5.05,0,7.51,0,2.4,0,4.79-.04,7.19.02,1.19.03,2.41.09,3.55.38,6.76,1.69,9.39,9.15,5.24,14.76-.28.38-.58.75-.94,1.22.21.24.39.49.61.68,3.42,2.91,4.37,6.62,3.13,10.8-1.29,4.37-4.69,6.32-8.96,6.76-2.45.26-4.95.11-7.42.12-3.26.01-6.52,0-9.92,0V7.18ZM78.49,33.68c2.19,0,4.25.13,6.28-.05,1.37-.12,2.22-1.59,2.12-3.03-.1-1.44-.94-2.61-2.27-2.69-2.04-.13-4.08-.03-6.14-.03v5.81ZM78.47,20.24c1.88,0,3.48.1,5.07-.03,1.51-.12,2.27-1.09,2.27-2.56,0-1.45-.78-2.53-2.22-2.64-1.71-.14-3.43-.03-5.12-.03v5.26Z"></path><path class="uuid-6deed047-9090-4aab-a3d0-229f893d34e3" d="M142.85,41.79h-7.13c-.23-.51-.49-1.07-.78-1.7-.2.07-.42.1-.59.21-2.71,1.78-5.66,2.45-8.88,2.08-5.28-.61-8.84-3.43-10.61-8.4-1.56-4.35-1.27-8.67.99-12.72,3.29-5.88,11.32-8.03,17.35-4.75.56.3,1.08.67,1.72,1.07.28-.73.53-1.37.76-2h7.15v26.2ZM134.09,28.87c.04-3.29-2.2-5.67-5.42-5.76-3.33-.09-5.75,2.3-5.74,5.68.01,3.27,2.34,5.67,5.53,5.69,3.17.03,5.59-2.39,5.62-5.61Z"></path><path class="uuid-6deed047-9090-4aab-a3d0-229f893d34e3" d="M320.07,7.27h8.73v10.01c2.02-.73,3.8-1.66,5.68-1.99,6.26-1.08,11.22,2.14,11.73,9.02.23,3.02.09,6.07.1,9.11.01,2.71,0,5.42,0,8.43-1.55.02-2.95.04-4.36.05-1.35,0-2.71,0-4.24,0-.08-.7-.2-1.31-.2-1.91-.02-3.68,0-7.36-.02-11.04,0-.79-.04-1.6-.18-2.38-.47-2.6-1.77-3.64-4.27-3.49-2.47.15-4.08,1.63-4.13,4.08-.08,3.92-.03,7.84-.03,11.76,0,.87,0,1.74,0,2.87-2.99.24-5.82.06-8.82.11V7.27Z"></path><path class="uuid-6deed047-9090-4aab-a3d0-229f893d34e3" d="M204.96,41.77h-10.43c-1.74-2.75-3.55-5.63-5.36-8.5l-.46.1v8.37c-3.09.33-5.92.08-8.88.17V7.23c2.8-.1,5.63-.06,8.73-.01v16.57l.51.16c1.73-2.8,3.45-5.6,5.15-8.35h9.4c.56,1.01-.15,1.59-.56,2.21-2.23,3.41-4.47,6.8-6.79,10.33.35.61.67,1.23,1.06,1.81,2.08,3.13,4.19,6.23,6.26,9.36.46.69.81,1.45,1.37,2.46Z"></path><path class="uuid-6deed047-9090-4aab-a3d0-229f893d34e3" d="M175.3,30.95c-.63,7.04-6.73,11.91-14.23,11.62-7.82-.3-13.36-5.59-13.61-12.99-.28-8.09,4.78-13.93,12.7-14.56,9.31-.73,14.62,5.41,15.14,11.26-1.34.56-2.77.19-4.16.25-1.35.06-2.71.01-3.97.01-2.99-3.76-6.63-4.51-9.25-2-2.32,2.22-2.21,6.47.23,8.6,2.72,2.37,6.1,1.56,8.94-2.19h8.21Z"></path><path class="uuid-6deed047-9090-4aab-a3d0-229f893d34e3" d="M205.68,33.67h8.29c1.6,1.84,3.41,2.47,5.21,1.81.95-.35,1.16-.74,1.17-2.26-1.3-1.24-3.09-1.03-4.68-1.43-1.77-.44-3.6-.75-5.29-1.42-6.14-2.44-5.46-10.46-1.08-13.24,3.2-2.03,6.69-2.47,10.35-1.99,2.08.27,4.05.95,5.74,2.24,1.97,1.52,3.19,3.45,3.26,6.17h-7.83c-2.4-2.18-3.55-2.36-5.96-.87-.49,1.21.22,1.85,1.21,2.14,1.14.34,2.35.41,3.51.69,1.85.45,3.79.73,5.51,1.5,5.79,2.59,5.22,9.87,1.73,12.55-1.24.95-2.68,1.77-4.17,2.25-3.42,1.11-6.94,1.03-10.38,0-4-1.2-6.19-3.89-6.6-8.14Z"></path><path class="uuid-6deed047-9090-4aab-a3d0-229f893d34e3" d="M314.97,34.74v7.21c-3.56.69-7.09,1.03-10.47-.67-2.55-1.28-3.87-3.54-4.24-6.3-.17-1.25-.03-2.54-.03-4.2,2.34-2.31,4.89-4.82,7.79-7.67h-12.03v-7.48c1.29-.08,2.54-.16,4.02-.26V7.35h8.99v8.04h5.67c.27,2.64.22,5.05.01,7.7h-5.55c0,3.17-.09,6.11.03,9.04.07,1.69.87,2.39,2.59,2.59,1.01.11,2.04.02,3.21.02Z"></path><path class="uuid-6deed047-9090-4aab-a3d0-229f893d34e3" d="M109.42,7.32v34.45h-8.73V7.32h8.73Z"></path><path class="uuid-6deed047-9090-4aab-a3d0-229f893d34e3" d="M291.8,41.8h-8.84c0-8.71,0-17.36,0-26.16h8.84v26.16Z"></path><path class="uuid-6deed047-9090-4aab-a3d0-229f893d34e3" d="M283.08,12.81v-5.67h8.73v5.67h-8.73Z"></path></g><g><path class="uuid-6deed047-9090-4aab-a3d0-229f893d34e3" d="M138.65,55.62v-6.83h2.33c.47,0,.87.08,1.21.25s.61.4.8.71c.19.31.28.68.28,1.11,0,.34-.06.65-.18.92s-.29.5-.52.69c-.23.19-.5.33-.82.42l2.23,2.73h-1.7l-1.97-2.57h-.32v2.57h-1.34ZM140,51.93h.57c.28,0,.51-.04.71-.12.19-.08.34-.2.44-.35.1-.16.16-.34.16-.56,0-.33-.11-.59-.34-.76-.23-.18-.55-.27-.97-.27h-.57v2.06Z"></path><path class="uuid-6deed047-9090-4aab-a3d0-229f893d34e3" d="M157.89,55.62v-6.83h3.8v1.17h-2.46v1.64h2.36v1.17h-2.36v1.66h2.46v1.17h-3.8Z"></path><path class="uuid-6deed047-9090-4aab-a3d0-229f893d34e3" d="M178.1,55.76c-.32,0-.61-.04-.88-.11-.27-.07-.51-.16-.72-.27-.21-.11-.39-.22-.54-.33-.15-.11-.27-.21-.36-.3l.69-1.11c.09.08.2.17.33.27.13.1.27.19.43.28s.33.16.51.22c.18.06.38.09.59.09.19,0,.36-.03.51-.09.15-.06.26-.15.35-.27.09-.12.13-.27.13-.45,0-.16-.03-.3-.1-.42-.07-.11-.17-.22-.3-.31-.13-.09-.3-.18-.49-.27-.19-.09-.42-.19-.66-.3-.18-.08-.36-.18-.53-.28s-.31-.23-.44-.37c-.13-.14-.23-.3-.31-.48-.08-.18-.11-.38-.11-.6,0-.26.05-.51.16-.75.1-.24.25-.45.45-.64s.43-.34.7-.45.57-.17.9-.17c.25,0,.5.03.74.1.25.07.48.15.69.26.22.11.4.22.55.35l-.56,1.05c-.12-.1-.25-.19-.4-.27-.15-.08-.31-.15-.48-.2-.17-.05-.34-.07-.52-.07-.2,0-.36.03-.5.1s-.24.16-.31.28-.11.24-.11.38c0,.12.02.21.07.3.05.08.12.15.2.21.09.06.19.12.32.17.12.05.26.11.41.17.32.14.61.27.87.4.26.13.48.28.67.44.18.16.33.35.42.57.1.21.15.47.15.77,0,.44-.1.81-.31,1.12-.21.31-.5.55-.87.71-.37.17-.81.25-1.3.25Z"></path><path class="uuid-6deed047-9090-4aab-a3d0-229f893d34e3" d="M194.95,55.62v-6.83h3.8v1.17h-2.46v1.64h2.36v1.17h-2.36v1.66h2.46v1.17h-3.8Z"></path><path class="uuid-6deed047-9090-4aab-a3d0-229f893d34e3" d="M212.57,55.62l2.74-6.83h1.25l2.74,6.83h-1.44l-.58-1.56h-2.68l-.58,1.56h-1.44ZM215.05,52.89h1.77l-.89-2.29-.88,2.29Z"></path><path class="uuid-6deed047-9090-4aab-a3d0-229f893d34e3" d="M233.3,55.62v-6.83h2.33c.47,0,.87.08,1.21.25s.61.4.8.71c.19.31.28.68.28,1.11,0,.34-.06.65-.18.92s-.29.5-.52.69c-.23.19-.5.33-.82.42l2.23,2.73h-1.7l-1.97-2.57h-.32v2.57h-1.34ZM234.64,51.93h.57c.28,0,.51-.04.71-.12.19-.08.34-.2.44-.35.1-.16.16-.34.16-.56,0-.33-.11-.59-.34-.76-.23-.18-.55-.27-.97-.27h-.57v2.06Z"></path><path class="uuid-6deed047-9090-4aab-a3d0-229f893d34e3" d="M255.61,55.76c-.52,0-1-.09-1.45-.27-.45-.18-.85-.44-1.2-.76-.34-.32-.61-.7-.81-1.13-.19-.43-.29-.89-.29-1.38s.1-.96.29-1.38.46-.8.81-1.13c.34-.32.74-.58,1.19-.76.45-.18.93-.27,1.45-.27.42,0,.82.06,1.2.18.38.12.7.27.97.47l-.58,1.14c-.18-.15-.41-.26-.67-.34s-.54-.12-.83-.12c-.34,0-.65.06-.94.17-.29.11-.54.27-.75.47-.21.2-.38.44-.5.71s-.18.56-.18.88.06.61.18.88.28.51.5.71.46.36.75.47c.29.11.6.17.94.17.29,0,.57-.04.83-.12.26-.08.49-.2.67-.34l.58,1.14c-.26.19-.58.34-.96.46s-.78.18-1.21.18Z"></path><path class="uuid-6deed047-9090-4aab-a3d0-229f893d34e3" d="M271.86,55.62v-6.83h1.34v2.82h2.55v-2.82h1.34v6.83h-1.34v-2.83h-2.55v2.83h-1.34Z"></path></g><g><rect class="uuid-6deed047-9090-4aab-a3d0-229f893d34e3" x="117.63" y="48.51" width="7.41" height="7.41"></rect><rect class="uuid-6deed047-9090-4aab-a3d0-229f893d34e3" x="290.7" y="48.51" width="7.41" height="7.41"></rect></g><path class="uuid-6deed047-9090-4aab-a3d0-229f893d34e3" d="M29.23,23.78l10.16-15.44v-1.18H0v34.29h40.29v-1.25l-11.06-16.42ZM8.83,33.19V15.47h16.93l-6.36,8.31,6.36,9.41H8.83Z"></path><rect class="uuid-6deed047-9090-4aab-a3d0-229f893d34e3" x="41.7" width="7.16" height="7.16"></rect><rect class="uuid-6deed047-9090-4aab-a3d0-229f893d34e3" x="55.63" y="20.72" width="7.16" height="7.16"></rect><g><polygon class="uuid-365ce232-3e39-43e6-986a-eae918c671e4" points="54.36 14.33 56.02 14.33 56.02 12.66 54.36 14.33"></polygon><polygon class="uuid-365ce232-3e39-43e6-986a-eae918c671e4" points="48.86 9.89 48.86 11.31 53.01 7.16 51.59 7.16 48.86 9.89"></polygon><polygon class="uuid-365ce232-3e39-43e6-986a-eae918c671e4" points="55.49 7.16 54.07 7.16 48.86 12.38 48.86 13.8 55.49 7.16"></polygon><polygon class="uuid-365ce232-3e39-43e6-986a-eae918c671e4" points="56.02 9.11 56.02 7.69 49.39 14.33 50.81 14.33 56.02 9.11"></polygon><polygon class="uuid-365ce232-3e39-43e6-986a-eae918c671e4" points="50.53 7.16 48.86 7.16 48.86 8.83 50.53 7.16"></polygon><polygon class="uuid-365ce232-3e39-43e6-986a-eae918c671e4" points="56.02 11.6 56.02 10.18 51.87 14.33 53.29 14.33 56.02 11.6"></polygon></g><g><polygon class="uuid-898cd2d1-a49d-44c1-ab53-26b848876fac" points="40.57 27.89 42.24 27.89 42.24 26.22 40.57 27.89"></polygon><polygon class="uuid-898cd2d1-a49d-44c1-ab53-26b848876fac" points="35.07 23.45 35.07 24.88 39.22 20.72 37.8 20.72 35.07 23.45"></polygon><polygon class="uuid-898cd2d1-a49d-44c1-ab53-26b848876fac" points="41.7 20.72 40.28 20.72 35.07 25.94 35.07 27.36 41.7 20.72"></polygon><polygon class="uuid-898cd2d1-a49d-44c1-ab53-26b848876fac" points="42.24 22.68 42.24 21.26 35.6 27.89 37.02 27.89 42.24 22.68"></polygon><polygon class="uuid-898cd2d1-a49d-44c1-ab53-26b848876fac" points="36.74 20.72 35.07 20.72 35.07 22.39 36.74 20.72"></polygon><polygon class="uuid-898cd2d1-a49d-44c1-ab53-26b848876fac" points="42.24 25.16 42.24 23.74 38.08 27.89 39.51 27.89 42.24 25.16"></polygon></g></g></g></svg>